<?xml version="1.0" encoding="utf-8"?>
<!-- Generator: Adobe Illustrator 22.0.0, SVG Export Plug-In . SVG Version: 6.00 Build 0)  -->
<svg version="1.1" id="Layer_1" xmlns="http://www.w3.org/2000/svg" xmlns:xlink="http://www.w3.org/1999/xlink" x="0px" y="0px"
	 viewBox="0 0 40 40" style="enable-background:new 0 0 40 40;" xml:space="preserve">
<style type="text/css">
	.st0{fill:url(#SVGID_1_);}
	.st1{fill:#FFFFFF;}
</style>
<linearGradient id="SVGID_1_" gradientUnits="userSpaceOnUse" x1="-92.5831" y1="681.1784" x2="-55.2914" y2="681.1784" gradientTransform="matrix(6.123234e-17 1 1 -6.123234e-17 -661.1784 93.9581)">
	<stop  offset="0" style="stop-color:#E982FB"/>
	<stop  offset="0.9883" style="stop-color:#AA15DD"/>
</linearGradient>
<path class="st0" d="M37,26.3V13.7c0-2.1-1.1-4.1-3-5.2L23,2.2c-1.9-1.1-4.1-1.1-6,0L6,8.5c-1.9,1.1-3,3.1-3,5.2v12.6
	c0,2.1,1.1,4.1,3,5.2l11,6.3c1.9,1.1,4.1,1.1,6,0l11-6.3C35.8,30.4,37,28.5,37,26.3z"/>
<path class="st1" d="M20,29.6c0.2,0,0.4,0.2,0.4,0.4c0,0.2-0.2,0.4-0.4,0.4c-0.2,0-0.4-0.2-0.4-0.4c0,0,0,0,0,0
	C19.6,29.8,19.8,29.6,20,29.6C20,29.6,20,29.6,20,29.6L20,29.6z M11.2,15.4c-0.2-0.1-0.3-0.4-0.2-0.6c0.1-0.2,0.4-0.3,0.6-0.2
	c0.1,0.1,0.2,0.2,0.2,0.3c0,0.2,0,0.4-0.2,0.5C11.6,15.4,11.4,15.4,11.2,15.4z M11.2,24.7c0.2-0.1,0.5,0,0.6,0.2c0,0,0,0,0,0
	c0.1,0.2,0,0.5-0.2,0.6c-0.2,0.1-0.5,0.1-0.6-0.2c0,0,0,0,0,0C10.9,25,11,24.8,11.2,24.7z M28.8,15.4c-0.2,0.1-0.5,0-0.6-0.2
	c0,0,0,0,0,0c-0.1-0.2-0.1-0.4,0-0.5c0.1-0.1,0.3-0.2,0.5-0.2c0.2,0.1,0.4,0.3,0.3,0.6C29,15.2,28.9,15.3,28.8,15.4z M20,10.4
	c-0.2,0-0.4-0.2-0.4-0.4c0-0.2,0.1-0.3,0.3-0.4c0.2-0.1,0.4,0,0.5,0.1c0.1,0.1,0.2,0.3,0.1,0.5C20.3,10.3,20.2,10.4,20,10.4z
	 M27.8,24.6c-0.2,0.4-0.1,0.9,0.2,1.2l-7.2,4.2c-0.1-0.4-0.4-0.8-0.9-0.8c-0.4,0-0.8,0.3-0.9,0.8L12,25.7c0.3-0.3,0.4-0.8,0.2-1.2
	c-0.2-0.4-0.7-0.5-1.1-0.4v-8.4c0.4,0.2,0.9,0,1.1-0.4c0.2-0.4,0.1-0.9-0.2-1.1l7.2-4.2c0.1,0.4,0.4,0.8,0.9,0.8
	c0.4,0,0.8-0.3,0.9-0.8l7.2,4.2c-0.3,0.3-0.4,0.8-0.2,1.1c0.2,0.4,0.7,0.5,1.1,0.4v8.4C28.5,24,28,24.2,27.8,24.6L27.8,24.6z
	 M21.7,23.3c-1.6,0.9-3.7,0.5-4.8-1l4.7-2.8l1.6-0.9l0.8-0.4l0,0l3.2-1.9c0.2-0.1,0.3-0.4,0.2-0.6c-0.1-0.2-0.4-0.3-0.6-0.2
	c0,0,0,0,0,0l-2.4,1.4c-0.9-1.4-2.4-2.3-4-2.5v-2.7c0-0.2-0.2-0.4-0.4-0.4c0,0,0,0,0,0c-0.2,0-0.4,0.2-0.4,0.4c0,0,0,0,0,0v2.7
	c-0.9,0-1.8,0.3-2.5,0.8c-0.7,0.4-1.3,1-1.8,1.6l-2.2-1.3c-0.2-0.1-0.5,0-0.6,0.1c0,0,0,0,0,0c-0.1,0.2,0,0.5,0.2,0.6l2.2,1.3
	c-0.5,0.9-0.7,2-0.6,3l0.2,1.1c0.1,0.3,0.2,0.6,0.3,0.9l-2.1,1.2c-0.2,0.1-0.3,0.4-0.2,0.6c0.1,0.2,0.4,0.3,0.6,0.2c0,0,0,0,0,0
	l2.1-1.2c1,1.4,2.6,2.3,4.3,2.5v2.6c0,0.2,0.2,0.4,0.4,0.4c0.2,0,0.4-0.2,0.4-0.4c0,0,0,0,0,0v-2.6c0.8-0.1,1.5-0.3,2.2-0.7
	c0.8-0.5,1.4-1.1,1.9-1.8l2.3,1.4c0.2,0.1,0.5,0,0.6-0.2c0.1-0.2,0-0.5-0.1-0.6l-2.4-1.4c0,0,0,0,0,0c0.7-1.6-1.2-2.4-1.6-1.1
	C23,22.1,22.5,22.8,21.7,23.3L21.7,23.3z M28.8,24.7c0.2,0.1,0.3,0.4,0.2,0.6c-0.1,0.2-0.4,0.3-0.6,0.2c0,0,0,0,0,0
	c-0.2-0.1-0.3-0.4-0.2-0.6C28.3,24.6,28.6,24.5,28.8,24.7C28.8,24.6,28.8,24.7,28.8,24.7z M16.3,20.6c0-1.7,0.2-2.8,1.7-3.8
	c1.3-0.8,3-0.6,4.1,0.3L16.3,20.6z"/>
</svg>
