<?xml version="1.0" encoding="utf-8"?>
<!-- Generator: Adobe Illustrator 22.0.0, SVG Export Plug-In . SVG Version: 6.00 Build 0)  -->
<svg version="1.1" id="Layer_1" xmlns="http://www.w3.org/2000/svg" xmlns:xlink="http://www.w3.org/1999/xlink" x="0px" y="0px"
	 viewBox="0 0 40 40" style="enable-background:new 0 0 40 40;" xml:space="preserve">
<style type="text/css">
	.st0{fill:url(#SVGID_1_);}
	.st1{fill:#FFFFFF;}
</style>
<linearGradient id="SVGID_1_" gradientUnits="userSpaceOnUse" x1="-92.5831" y1="681.1784" x2="-55.2914" y2="681.1784" gradientTransform="matrix(0 1 1 0 -661.1784 93.9581)">
	<stop  offset="0" style="stop-color:#686B72"/>
	<stop  offset="0.3953" style="stop-color:#4E4F53"/>
	<stop  offset="0.765" style="stop-color:#3B3B3C"/>
	<stop  offset="1" style="stop-color:#343434"/>
</linearGradient>
<path class="st0" d="M37,26.3V13.7c0-2.1-1.1-4.1-3-5.2L23,2.2c-1.9-1.1-4.1-1.1-6,0L6,8.5c-1.9,1.1-3,3.1-3,5.2v12.6
	c0,2.1,1.1,4.1,3,5.2l11,6.3c1.9,1.1,4.1,1.1,6,0l11-6.3C35.8,30.4,37,28.5,37,26.3z"/>
<g>
	<polygon class="st1" points="13.2,20.2 13.2,20.2 14.4,20.9 20,24.2 20,24.2 26.8,20.2 20,9 20,9 20,9 20,9 20,9 13.2,20.2 	"/>
	<polygon class="st1" points="26.8,21.5 20,25.5 20,25.5 13.2,21.5 20,31 20,31 	"/>
</g>
</svg>
