<?xml version="1.0" encoding="utf-8"?>
<!-- Generator: Adobe Illustrator 22.0.0, SVG Export Plug-In . SVG Version: 6.00 Build 0)  -->
<svg version="1.1" id="Layer_1" xmlns="http://www.w3.org/2000/svg" xmlns:xlink="http://www.w3.org/1999/xlink" x="0px" y="0px"
	 viewBox="0 0 40 40" style="enable-background:new 0 0 40 40;" xml:space="preserve">
<style type="text/css">
	.st0{fill:url(#SVGID_1_);}
	.st1{fill:#FFFFFF;}
</style>
<linearGradient id="SVGID_1_" gradientUnits="userSpaceOnUse" x1="-92.5831" y1="681.1784" x2="-55.2914" y2="681.1784" gradientTransform="matrix(0 1 1 0 -661.1784 93.9581)">
	<stop  offset="0" style="stop-color:#00E2FF"/>
	<stop  offset="0.918" style="stop-color:#23BEE2"/>
</linearGradient>
<path class="st0" d="M37,26.3V13.7c0-2.1-1.1-4.1-3-5.2L23,2.2c-1.9-1.1-4.1-1.1-6,0L6,8.5c-1.9,1.1-3,3.1-3,5.2v12.6
	c0,2.1,1.1,4.1,3,5.2l11,6.3c1.9,1.1,4.1,1.1,6,0l11-6.3C35.8,30.4,37,28.5,37,26.3z"/>
<path class="st1" d="M23.7,17.6l3.1-3.3c1.3,1.6,2.1,3.6,2.1,5.7c0,4.9-4,8.8-8.8,8.8c-1.5,0-3-0.4-4.3-1.1l7.9-4.1l1.3-0.7
	l-1.2-0.8l-0.8-0.6l2.5-1.3l1.2-0.6l-1.1-0.8C25.4,18.9,23.7,17.6,23.7,17.6z M16.3,22.9l-2.9,3c-1.5-1.6-2.3-3.7-2.3-5.9
	c0-4.9,4-8.8,8.8-8.8c1.7,0,3.3,0.5,4.7,1.3l-8.3,4.3l-1.3,0.7l1.2,0.8l0.8,0.6l-2.5,1.3l-1.2,0.6l1.1,0.8
	C14.6,21.6,16.3,22.9,16.3,22.9z M12.9,26.5l-0.6,0.6c-1.8-1.9-2.8-4.5-2.8-7.1c0-5.8,4.7-10.5,10.5-10.5c2.4,0,4.6,0.8,6.3,2.1
	l-0.9,0.4C23.9,11,22,10.4,20,10.4c-5.3,0-9.6,4.3-9.6,9.6C10.4,22.5,11.3,24.8,12.9,26.5L12.9,26.5z M27.3,13.8l0.6-0.6
	c1.7,1.9,2.6,4.3,2.6,6.9c0,5.8-4.7,10.5-10.5,10.5c-2.1,0-4.2-0.6-6-1.9l0.9-0.5c1.5,1,3.3,1.5,5.1,1.5c5.3,0,9.6-4.3,9.6-9.6
	C29.6,17.6,28.8,15.4,27.3,13.8L27.3,13.8z M15.1,20.9l3.8-1.9l-2-1.4l11.3-5.8l-5.7,6l2.5,1.9l-3.8,1.9l2,1.4l-11.3,5.8l5.7-6
	L15.1,20.9z"/>
</svg>
