<?xml version="1.0" encoding="utf-8"?>
<!-- Generator: Adobe Illustrator 22.0.0, SVG Export Plug-In . SVG Version: 6.00 Build 0)  -->
<svg version="1.1" id="Layer_1" xmlns="http://www.w3.org/2000/svg" xmlns:xlink="http://www.w3.org/1999/xlink" x="0px" y="0px"
	 viewBox="0 0 40 40" style="enable-background:new 0 0 40 40;" xml:space="preserve">
<style type="text/css">
	.st0{fill:url(#SVGID_1_);}
	.st1{fill:#FFFFFF;}
</style>
<linearGradient id="SVGID_1_" gradientUnits="userSpaceOnUse" x1="-92.5831" y1="681.1784" x2="-55.2914" y2="681.1784" gradientTransform="matrix(0 1 1 0 -661.1784 93.9581)">
	<stop  offset="0" style="stop-color:#57FF9F"/>
	<stop  offset="0.9336" style="stop-color:#23D979"/>
</linearGradient>
<path class="st0" d="M37,26.3V13.7c0-2.1-1.1-4.1-3-5.2L23,2.2c-1.9-1.1-4.1-1.1-6,0L6,8.5c-1.9,1.1-3,3.1-3,5.2v12.6
	c0,2.1,1.1,4.1,3,5.2l11,6.3c1.9,1.1,4.1,1.1,6,0l11-6.3C35.8,30.4,37,28.5,37,26.3z"/>
<g>
	<polygon class="st1" points="17.9,16.3 12.1,14.2 17.9,12 17.9,9.5 9.5,13.2 9.5,14.2 9.5,15.1 17.9,18.8 	"/>
	<polygon class="st1" points="22.1,19.6 22.1,22 27.9,24.2 22.1,26.4 22.1,28.9 30.5,25.2 30.5,24.2 30.5,23.3 	"/>
	<path class="st1" d="M20.5,17.9L20.5,17.9c-0.4-0.1-0.9,0.2-1,0.6l-2.6,11c-0.1,0.4,0.2,0.9,0.6,1h0c0.4,0.1,0.9-0.2,1-0.6l2.6-11
		C21.2,18.4,21,18,20.5,17.9z"/>
</g>
</svg>
