<?xml version="1.0" encoding="utf-8"?>
<!-- Generator: Adobe Illustrator 22.0.0, SVG Export Plug-In . SVG Version: 6.00 Build 0)  -->
<svg version="1.1" id="Layer_1" xmlns="http://www.w3.org/2000/svg" xmlns:xlink="http://www.w3.org/1999/xlink" x="0px" y="0px"
	 viewBox="0 0 40 40" style="enable-background:new 0 0 40 40;" xml:space="preserve">
<style type="text/css">
	.st0{fill:url(#SVGID_1_);}
	.st1{fill:none;stroke:url(#SVGID_2_);stroke-miterlimit:10;}
	.st2{fill:none;stroke:url(#SVGID_3_);stroke-width:0.869;stroke-miterlimit:10;}
	.st3{fill:#FFFFFF;}
</style>
<linearGradient id="SVGID_1_" gradientUnits="userSpaceOnUse" x1="-189.5564" y1="-729.1784" x2="-152.2647" y2="-729.1784" gradientTransform="matrix(0 1 -1 0 -709.1784 183.9581)">
	<stop  offset="0" style="stop-color:#BEEA2E"/>
	<stop  offset="1" style="stop-color:#52BA00"/>
</linearGradient>
<path class="st0" d="M37,26.3V13.7c0-2.1-1.1-4.1-3-5.2L23,2.2c-1.9-1.1-4.1-1.1-6,0L6,8.5c-1.9,1.1-3,3.1-3,5.2v12.6
	c0,2.1,1.1,4.1,3,5.2l11,6.3c1.9,1.1,4.1,1.1,6,0l11-6.3C35.8,30.4,37,28.5,37,26.3z"/>
<linearGradient id="SVGID_2_" gradientUnits="userSpaceOnUse" x1="1581.725" y1="190.625" x2="2037.8749" y2="-265.525" gradientTransform="matrix(1 0 0 -1 0 42)">
	<stop  offset="0" style="stop-color:#455DF0"/>
	<stop  offset="1" style="stop-color:#345D9D"/>
</linearGradient>
<rect x="1661.2" y="-227.1" class="st1" width="297.2" height="613.1"/>
<linearGradient id="SVGID_3_" gradientUnits="userSpaceOnUse" x1="1297.538" y1="500.807" x2="1708.5258" y2="89.8192" gradientTransform="matrix(1 0 0 -1 0 42)">
	<stop  offset="0" style="stop-color:#455DF0"/>
	<stop  offset="1" style="stop-color:#345D9D"/>
</linearGradient>
<polygon class="st2" points="1661.2,-1.7 1206.6,-277.7 1206.6,-367 1661.2,-367 "/>
<path class="st3" d="M11.5,26.9L18,30V17l-6.5-3V26.9z M21.7,24l6.8,2.6v-13L21.7,16V24z M12.1,13.4l6.4,3.1L28,13l-6.3-3L12.1,13.4
	z"/>
</svg>
