<?xml version="1.0" encoding="utf-8"?>
<!-- Generator: Adobe Illustrator 22.0.0, SVG Export Plug-In . SVG Version: 6.00 Build 0)  -->
<svg version="1.1" id="Layer_1" xmlns="http://www.w3.org/2000/svg" xmlns:xlink="http://www.w3.org/1999/xlink" x="0px" y="0px"
	 viewBox="0 0 40 40" style="enable-background:new 0 0 40 40;" xml:space="preserve">
<style type="text/css">
	.st0{fill:none;stroke:url(#SVGID_1_);stroke-miterlimit:10;}
	.st1{fill:none;stroke:url(#SVGID_2_);stroke-width:0.869;stroke-miterlimit:10;}
	.st2{fill:url(#SVGID_3_);}
	.st3{fill:#FFFFFF;}
</style>
<linearGradient id="SVGID_1_" gradientUnits="userSpaceOnUse" x1="1581.725" y1="190.625" x2="2037.8749" y2="-265.525" gradientTransform="matrix(1 0 0 -1 0 42)">
	<stop  offset="0" style="stop-color:#455DF0"/>
	<stop  offset="1" style="stop-color:#345D9D"/>
</linearGradient>
<rect x="1661.2" y="-227.1" class="st0" width="297.2" height="613.1"/>
<linearGradient id="SVGID_2_" gradientUnits="userSpaceOnUse" x1="1297.538" y1="500.807" x2="1708.5258" y2="89.8192" gradientTransform="matrix(1 0 0 -1 0 42)">
	<stop  offset="0" style="stop-color:#455DF0"/>
	<stop  offset="1" style="stop-color:#345D9D"/>
</linearGradient>
<polygon class="st1" points="1661.2,-1.7 1206.6,-277.7 1206.6,-367 1661.2,-367 "/>
<g>
	
		<linearGradient id="SVGID_3_" gradientUnits="userSpaceOnUse" x1="20" y1="41.6291" x2="20" y2="3.4797" gradientTransform="matrix(1 0 0 -1 0 42)">
		<stop  offset="0.1406" style="stop-color:#F6E700"/>
		<stop  offset="1" style="stop-color:#C9B429"/>
	</linearGradient>
	<path class="st2" d="M37,26.3V13.7c0-2.1-1.1-4.1-3-5.2L23,2.2c-1.9-1.1-4.1-1.1-6,0L6,8.5c-1.9,1.1-3,3.1-3,5.2v12.6
		c0,2.1,1.1,4.1,3,5.2l11,6.3c1.9,1.1,4.1,1.1,6,0l11-6.3C35.8,30.4,37,28.5,37,26.3z"/>
	<g>
		<path class="st3" d="M18.5,14.4h2.2l4.2-2.4c-1-0.7-2.2-1.1-3.5-1.1l0,0h-7.5v7.4l4.6-2.6L18.5,14.4z"/>
		<path class="st3" d="M22.9,18.5c-0.3,0.6-0.8,1.1-1.6,1.2l0,0h-0.4l-7,4.1v5.6l4.6-2.5v-3.6h3l0,0c3.4,0,6.1-2.8,6.1-6.2
			c0-0.4,0-0.8-0.1-1.2L22.9,18.5z"/>
		<polygon class="st3" points="20,19.7 18.5,19.7 18.5,16.2 13.9,18.8 9.5,21.3 12.2,24.2 13.9,23.3 		"/>
		<path class="st3" d="M23.2,17c0,0.3,0,0.6-0.1,0.8l4.2-2.5l3.2-1.9l-2.8-2.7L25.3,12l-3.8,2.2C22.7,14.6,23.2,15.7,23.2,17z"/>
	</g>
</g>
</svg>
