<?xml version="1.0" encoding="utf-8"?>
<!-- Generator: Adobe Illustrator 22.0.0, SVG Export Plug-In . SVG Version: 6.00 Build 0)  -->
<svg version="1.1" id="Layer_1" xmlns="http://www.w3.org/2000/svg" xmlns:xlink="http://www.w3.org/1999/xlink" x="0px" y="0px"
	 viewBox="0 0 40 40" style="enable-background:new 0 0 40 40;" xml:space="preserve">
<style type="text/css">
	.st0{fill:url(#SVGID_1_);}
	.st1{fill:none;stroke:url(#SVGID_2_);stroke-miterlimit:10;}
	.st2{fill:none;stroke:url(#SVGID_3_);stroke-width:0.869;stroke-miterlimit:10;}
	.st3{fill:#FFFFFF;}
</style>
<linearGradient id="SVGID_1_" gradientUnits="userSpaceOnUse" x1="20" y1="-5.8026" x2="20" y2="32.3468">
	<stop  offset="0" style="stop-color:#8CD9DE"/>
	<stop  offset="1" style="stop-color:#00AAB5"/>
</linearGradient>
<path class="st0" d="M37,26.3V13.7c0-2.1-1.1-4.1-3-5.2L23,2.2c-1.9-1.1-4.1-1.1-6,0L6,8.5c-1.9,1.1-3,3.1-3,5.2v12.6
	c0,2.1,1.1,4.1,3,5.2l11,6.3c1.9,1.1,4.1,1.1,6,0l11-6.3C35.8,30.4,37,28.5,37,26.3z"/>
<linearGradient id="SVGID_2_" gradientUnits="userSpaceOnUse" x1="1581.7399" y1="-148.6274" x2="2037.9077" y2="307.5405">
	<stop  offset="0" style="stop-color:#455DF0"/>
	<stop  offset="1" style="stop-color:#345D9D"/>
</linearGradient>
<rect x="1661.2" y="-227.1" class="st1" width="297.2" height="613.1"/>
<linearGradient id="SVGID_3_" gradientUnits="userSpaceOnUse" x1="1297.5162" y1="-458.8142" x2="1708.553" y2="-47.7775">
	<stop  offset="0" style="stop-color:#455DF0"/>
	<stop  offset="1" style="stop-color:#345D9D"/>
</linearGradient>
<polygon class="st2" points="1661.2,-1.7 1206.6,-277.7 1206.6,-367 1661.2,-367 "/>
<g>
	<rect x="14.5" y="15.1" class="st3" width="6.3" height="1.8"/>
	<path class="st3" d="M25.4,18c0-2.9,0.1-3.3,0.1-4c0-0.7-0.5-4-4.3-4h-6.6v1.8h6.6c0,0,2.1,0.3,2.1,2.8s0,2.2,0,3
		c0,0.8-0.6,2.4-3.1,2.4h-3.4h-2.1V22v8h2.1v-8c1.8,0,4.2,0,4.2,0v-0.1l2.5,8.1h2.1l-2.5-8.4C23.5,21.4,25.4,20.4,25.4,18z"/>
</g>
</svg>
